<svg viewBox="0 0 40 40" fill="none" xmlns="http://www.w3.org/2000/svg">
    <path fill-rule="evenodd" clip-rule="evenodd" d="M16.6216 0.85942C18.7283 -0.286473 21.2721 -0.286474 23.3787 0.85942L35.5915 7.50256C37.8671 8.74033 39.2836 11.1233 39.2836 13.7137V26.2863C39.2836 28.8767 37.8671 31.2597 35.5915 32.4974L23.3787 39.1406C21.2721 40.2865 18.7283 40.2865 16.6216 39.1406L4.40883 32.4974C2.1333 31.2597 0.716797 28.8767 0.716797 26.2863L0.716797 13.7137C0.716797 11.1233 2.1333 8.74033 4.40882 7.50256L16.6216 0.85942Z" fill="#F7931A"/>
        <g clip-path="url(#clip0_3252_65789)">
            <path d="M20 36C28.8366 36 36 28.8366 36 20C36 11.1634 28.8366 4 20 4C11.1634 4 4 11.1634 4 20C4 28.8366 11.1634 36 20 36Z" fill="#F7931A"/>
            <path d="M27.032 18.02C27.346 15.924 25.749 14.797 23.567 14.045L24.275 11.205L22.547 10.775L21.857 13.54C21.403 13.426 20.937 13.32 20.472 13.214L21.167 10.431L19.439 10L18.731 12.839C18.355 12.753 17.985 12.669 17.627 12.579L17.629 12.57L15.245 11.975L14.785 13.821C14.785 13.821 16.068 14.115 16.041 14.133C16.741 14.308 16.867 14.771 16.846 15.139L16.04 18.374C16.088 18.386 16.15 18.404 16.22 18.431L16.037 18.386L14.907 22.918C14.821 23.13 14.604 23.449 14.114 23.328C14.132 23.353 12.858 23.015 12.858 23.015L12 24.993L14.25 25.554C14.668 25.659 15.078 25.769 15.481 25.872L14.766 28.744L16.493 29.174L17.201 26.334C17.673 26.461 18.131 26.579 18.579 26.691L17.873 29.519L19.601 29.949L20.316 27.083C23.264 27.641 25.48 27.416 26.413 24.75C27.165 22.604 26.376 21.365 24.825 20.558C25.955 20.298 26.805 19.555 27.032 18.02ZM23.082 23.558C22.549 25.705 18.934 24.544 17.762 24.253L18.712 20.448C19.884 20.741 23.641 21.32 23.082 23.558ZM23.617 17.989C23.13 19.942 20.122 18.949 19.147 18.706L20.007 15.256C20.982 15.499 24.125 15.952 23.617 17.989Z" fill="white"/>
        </g>
    <defs>
        <clipPath id="clip0_3252_65789">
            <rect width="32" height="32" fill="white" transform="translate(4 4)"/>
        </clipPath>
    </defs>
</svg>
