<svg viewBox="0 0 33 32" fill="none" xmlns="http://www.w3.org/2000/svg">
<path fill-rule="evenodd" clip-rule="evenodd" d="M13.5832 0.687536C15.2685 -0.229179 17.3036 -0.229179 18.9889 0.687536L28.7592 6.00205C30.5796 6.99226 31.7128 8.89867 31.7128 10.971V21.029C31.7128 23.1013 30.5796 25.0077 28.7592 25.998L18.9889 31.3125C17.3036 32.2292 15.2685 32.2292 13.5832 31.3125L3.813 25.998C1.99258 25.0077 0.859375 23.1013 0.859375 21.029L0.859375 10.971C0.859375 8.89867 1.99258 6.99226 3.813 6.00205L13.5832 0.687536Z" fill="#627EEA"/>
<g clip-path="url(#clip0_3269_68787)">
<path d="M16.2863 28.8002C23.3556 28.8002 29.0863 23.0694 29.0863 16.0002C29.0863 8.93095 23.3556 3.2002 16.2863 3.2002C9.21708 3.2002 3.48633 8.93095 3.48633 16.0002C3.48633 23.0694 9.21708 28.8002 16.2863 28.8002Z" fill="#627EEA"/>
<path d="M16.2861 6.40039V13.4964L22.2837 16.1764L16.2861 6.40039Z" fill="#FCFCFD"/>
<path d="M16.6849 6.40039L10.6865 16.1764L16.6849 13.4964V6.40039Z" fill="white"/>
<path d="M16.2861 21.0822V25.9038L22.2877 17.6006L16.2861 21.0822Z" fill="#FCFCFD"/>
<path d="M16.6849 25.9038V21.0814L10.6865 17.6006L16.6849 25.9038Z" fill="white"/>
<path d="M16.2861 19.7614L22.2837 16.279L16.2861 13.6006V19.7614Z" fill="white" fill-opacity="0.2"/>
<path d="M10.6865 16.279L16.6849 19.7614V13.6006L10.6865 16.279Z" fill="#FCFCFD"/>
</g>
<defs>
<clipPath id="clip0_3269_68787">
<rect width="25.6" height="25.6" fill="white" transform="translate(3.48633 3.2002)"/>
</clipPath>
</defs>
</svg>
