<svg width="33" height="32" viewBox="0 0 33 32" fill="none" xmlns="http://www.w3.org/2000/svg">
    <path fill-rule="evenodd" clip-rule="evenodd" d="M13.4973 0.687536C15.1826 -0.229179 17.2177 -0.229179 18.903 0.687536L28.6732 6.00205C30.4937 6.99226 31.6269 8.89867 31.6269 10.971V21.029C31.6269 23.1013 30.4937 25.0077 28.6732 25.998L18.903 31.3125C17.2177 32.2292 15.1826 32.2292 13.4973 31.3125L3.72706 25.998C1.90664 25.0077 0.773438 23.1013 0.773438 21.029L0.773438 10.971C0.773437 8.89867 1.90664 6.99226 3.72706 6.00205L13.4973 0.687536Z" fill="#7C6BE0"/>
    <g clip-path="url(#clip0_3410_98305)">
        <path d="M16.2004 28.8002C23.2696 28.8002 29.0004 23.0694 29.0004 16.0002C29.0004 8.93095 23.2696 3.2002 16.2004 3.2002C9.13115 3.2002 3.40039 8.93095 3.40039 16.0002C3.40039 23.0694 9.13115 28.8002 16.2004 28.8002Z" fill="#7C6BE0"/>
        <g filter="url(#filter0_d_3410_98305)">
            <path d="M15.98 8.04864C16.3632 7.85104 16.8312 8.30784 16.628 8.68464C16.5088 8.99184 16.06 9.07344 15.8312 8.83904C15.5888 8.61504 15.668 8.17024 15.98 8.04784V8.04864ZM11.856 8.48544C12.0888 8.39104 12.384 8.60064 12.36 8.85104C12.384 9.12144 12.048 9.32144 11.8104 9.19264C11.496 9.07264 11.532 8.57024 11.856 8.48544ZM20.3024 9.19984C19.9384 9.15664 19.8808 8.59344 20.2304 8.47984C20.5024 8.35024 20.752 8.59424 20.792 8.84784C20.7344 9.06384 20.5504 9.26224 20.3024 9.19984ZM12.7944 10.2118C13.184 9.96944 13.7392 10.3302 13.6792 10.7758C13.6592 11.2246 13.0528 11.4854 12.7104 11.1814C12.3792 10.943 12.4296 10.3958 12.7944 10.2118ZM18.7384 10.4694C18.912 10.0294 19.616 10.015 19.8136 10.4438C20.0096 10.7774 19.7688 11.191 19.4208 11.3046C18.9592 11.3894 18.5216 10.8982 18.7384 10.4694ZM15.4832 11.2798C15.4792 10.9006 15.8296 10.619 16.1952 10.5926C16.4384 10.6406 16.7024 10.7422 16.8064 10.983C17.0008 11.3158 16.828 11.7726 16.4784 11.9254C16.3184 12.0134 16.128 11.9806 15.9536 11.9702C15.6872 11.8422 15.4624 11.5886 15.4832 11.2798ZM9.35044 11.8318C9.70644 11.6158 10.1864 12.0078 10.0512 12.3886C9.97764 12.7174 9.52804 12.851 9.27124 12.6414C8.99684 12.4446 9.04004 11.9718 9.35124 11.831L9.35044 11.8318ZM22.52 11.8302C22.8216 11.5998 23.32 11.8646 23.2832 12.239C23.304 12.5806 22.8728 12.839 22.5736 12.663C22.244 12.5166 22.2096 12.0174 22.52 11.831V11.8302ZM17.208 12.511C17.7056 12.335 18.2976 12.5454 18.5808 12.983C18.9552 13.5166 18.7568 14.3294 18.1752 14.6358C17.5736 14.9982 16.6944 14.6918 16.4712 14.0294C16.2192 13.4374 16.5872 12.6966 17.2072 12.511H17.208ZM14.2856 12.5694C14.8376 12.3134 15.5808 12.5278 15.8472 13.083C16.1608 13.6238 15.9184 14.3766 15.3576 14.6558C14.796 14.9702 14.0032 14.7318 13.732 14.1518C13.4272 13.5902 13.6976 12.8278 14.2856 12.5694ZM11.36 13.5526C11.4024 13.203 11.7376 12.975 12.076 12.951C12.2525 12.9697 12.4175 13.0476 12.5439 13.1722C12.6703 13.2967 12.7507 13.4605 12.772 13.6366C12.748 13.9966 12.4656 14.347 12.0784 14.3454C11.652 14.3814 11.2784 13.9638 11.36 13.5526ZM20.0016 13.0278C20.4392 12.7774 21.0464 13.1414 21.0272 13.6358C21.0568 14.1598 20.3848 14.5286 19.9496 14.2214C19.4968 13.9654 19.532 13.2454 20.0016 13.0278ZM13.0976 14.8734C13.608 14.735 14.1936 14.9718 14.444 15.4342C14.7184 15.8998 14.6064 16.5462 14.18 16.8886C13.632 17.3894 12.6232 17.1878 12.332 16.5046C11.9968 15.8782 12.404 15.0382 13.0968 14.8726L13.0976 14.8734ZM18.6392 14.871C19.136 14.731 19.72 14.919 19.9872 15.3646C20.3408 15.8742 20.172 16.635 19.6464 16.963C19.0944 17.3446 18.2416 17.1446 17.9376 16.5478C17.5696 15.931 17.94 15.059 18.6392 14.871ZM9.80724 15.4518C10.2488 15.2878 10.7384 15.767 10.5592 16.1982C10.4504 16.5902 9.88804 16.7358 9.59764 16.4462C9.25764 16.1742 9.38323 15.5702 9.80724 15.4518ZM21.7824 16.0774C21.7741 15.9013 21.8357 15.7291 21.9538 15.5981C22.0718 15.4672 22.2368 15.3882 22.4128 15.3782C22.7152 15.4262 23.0096 15.6662 22.9856 15.9902C23.0136 16.4182 22.4896 16.7086 22.1184 16.5078C21.9448 16.4206 21.856 16.2454 21.7824 16.0774ZM7.63524 15.6646C7.90084 15.5502 8.22964 15.7766 8.16884 16.067C8.15444 16.3958 7.66084 16.523 7.48004 16.2478C7.32004 16.0566 7.41604 15.763 7.63524 15.6638V15.6646ZM24.3944 15.6574C24.5816 15.527 24.8824 15.6206 24.956 15.8358C25.0816 16.071 24.8512 16.3926 24.5824 16.3534C24.2048 16.387 24.0832 15.8214 24.3944 15.6574ZM14.5408 17.2358C15.24 17.0574 15.992 17.631 15.9968 18.3398C16.0416 19.0558 15.3008 19.6902 14.5856 19.5254C14.032 19.4374 13.5976 18.9126 13.616 18.363C13.6144 17.8366 14.0176 17.347 14.5408 17.2358ZM17.3104 17.235C18.02 17.0398 18.7944 17.6238 18.7832 18.3486C18.8208 19.051 18.1032 19.6646 17.4024 19.5246C16.7424 19.4414 16.256 18.7286 16.44 18.0982C16.5328 17.679 16.8896 17.3382 17.3104 17.2342V17.235ZM11.9696 17.671C12.4608 17.5886 12.9216 18.127 12.7224 18.5862C12.5768 19.0758 11.8536 19.2078 11.5336 18.8086C11.1592 18.4246 11.4392 17.7238 11.9696 17.671ZM20.0928 17.6926C20.5312 17.5118 21.0688 17.8846 21.0352 18.3526C21.0528 18.867 20.3888 19.2222 19.9608 18.9214C19.4752 18.6518 19.564 17.8574 20.0928 17.6926ZM22.3632 19.9326C22.192 19.6182 22.5032 19.2014 22.8592 19.2598C23.0352 19.2566 23.1592 19.3934 23.272 19.5086C23.2952 19.695 23.3344 19.9174 23.1768 20.0606C22.9632 20.327 22.4792 20.251 22.3632 19.9326ZM9.34883 19.347C9.68084 19.1302 10.1584 19.4542 10.0832 19.835C10.0432 20.1734 9.61124 20.3662 9.32724 20.1742C9.02164 20.0006 9.03284 19.5054 9.34883 19.347ZM15.9032 20.0534C16.3376 19.8654 16.8912 20.2374 16.8496 20.7078C16.8816 21.2278 16.1976 21.5878 15.7728 21.2758C15.3008 21.0078 15.38 20.219 15.9032 20.0534ZM12.868 20.7502C13.2376 20.559 13.7336 20.8894 13.7 21.2974C13.7112 21.6318 13.38 21.9166 13.044 21.867C12.7664 21.8614 12.5856 21.6158 12.496 21.383C12.5008 21.1294 12.6072 20.847 12.868 20.751V20.7502ZM19.0168 20.7566C19.3976 20.5246 19.9384 20.8574 19.9024 21.2926C19.912 21.7486 19.3008 22.0398 18.9464 21.7406C18.604 21.5062 18.6456 20.943 19.0168 20.7566ZM20.0864 23.3566C19.9168 23.1054 20.116 22.8022 20.3904 22.7446C20.612 22.7886 20.8464 22.9526 20.7992 23.2038C20.7672 23.5454 20.26 23.6494 20.0864 23.3574V23.3566ZM11.5976 23.1382C11.6648 22.9382 11.828 22.7406 12.0672 22.7926C12.4152 22.8166 12.5184 23.3334 12.2136 23.4926C11.94 23.6742 11.6216 23.4254 11.5976 23.1382ZM15.6936 23.3678C15.76 23.0718 16.148 22.9286 16.404 23.0854C16.5736 23.1574 16.6232 23.343 16.6664 23.5014C16.6436 23.5837 16.6223 23.6664 16.6024 23.7494C16.4976 23.871 16.3624 23.9934 16.188 23.9894C15.864 24.027 15.5712 23.6662 15.6928 23.3678H15.6936Z" fill="black"/>
        </g>
        <path d="M15.98 8.04864C16.3632 7.85104 16.8312 8.30784 16.628 8.68464C16.5088 8.99184 16.06 9.07344 15.8312 8.83904C15.5888 8.61504 15.668 8.17024 15.98 8.04784V8.04864ZM11.856 8.48544C12.0888 8.39104 12.384 8.60064 12.36 8.85104C12.384 9.12144 12.048 9.32144 11.8104 9.19264C11.496 9.07264 11.532 8.57024 11.856 8.48544ZM20.3024 9.19984C19.9384 9.15664 19.8808 8.59344 20.2304 8.47984C20.5024 8.35024 20.752 8.59424 20.792 8.84784C20.7344 9.06384 20.5504 9.26224 20.3024 9.19984ZM12.7944 10.2118C13.184 9.96944 13.7392 10.3302 13.6792 10.7758C13.6592 11.2246 13.0528 11.4854 12.7104 11.1814C12.3792 10.943 12.4296 10.3958 12.7944 10.2118ZM18.7384 10.4694C18.912 10.0294 19.616 10.015 19.8136 10.4438C20.0096 10.7774 19.7688 11.191 19.4208 11.3046C18.9592 11.3894 18.5216 10.8982 18.7384 10.4694ZM15.4832 11.2798C15.4792 10.9006 15.8296 10.619 16.1952 10.5926C16.4384 10.6406 16.7024 10.7422 16.8064 10.983C17.0008 11.3158 16.828 11.7726 16.4784 11.9254C16.3184 12.0134 16.128 11.9806 15.9536 11.9702C15.6872 11.8422 15.4624 11.5886 15.4832 11.2798ZM9.35044 11.8318C9.70644 11.6158 10.1864 12.0078 10.0512 12.3886C9.97764 12.7174 9.52804 12.851 9.27124 12.6414C8.99684 12.4446 9.04004 11.9718 9.35124 11.831L9.35044 11.8318ZM22.52 11.8302C22.8216 11.5998 23.32 11.8646 23.2832 12.239C23.304 12.5806 22.8728 12.839 22.5736 12.663C22.244 12.5166 22.2096 12.0174 22.52 11.831V11.8302ZM17.208 12.511C17.7056 12.335 18.2976 12.5454 18.5808 12.983C18.9552 13.5166 18.7568 14.3294 18.1752 14.6358C17.5736 14.9982 16.6944 14.6918 16.4712 14.0294C16.2192 13.4374 16.5872 12.6966 17.2072 12.511H17.208ZM14.2856 12.5694C14.8376 12.3134 15.5808 12.5278 15.8472 13.083C16.1608 13.6238 15.9184 14.3766 15.3576 14.6558C14.796 14.9702 14.0032 14.7318 13.732 14.1518C13.4272 13.5902 13.6976 12.8278 14.2856 12.5694ZM11.36 13.5526C11.4024 13.203 11.7376 12.975 12.076 12.951C12.2525 12.9697 12.4175 13.0476 12.5439 13.1722C12.6703 13.2967 12.7507 13.4605 12.772 13.6366C12.748 13.9966 12.4656 14.347 12.0784 14.3454C11.652 14.3814 11.2784 13.9638 11.36 13.5526ZM20.0016 13.0278C20.4392 12.7774 21.0464 13.1414 21.0272 13.6358C21.0568 14.1598 20.3848 14.5286 19.9496 14.2214C19.4968 13.9654 19.532 13.2454 20.0016 13.0278ZM13.0976 14.8734C13.608 14.735 14.1936 14.9718 14.444 15.4342C14.7184 15.8998 14.6064 16.5462 14.18 16.8886C13.632 17.3894 12.6232 17.1878 12.332 16.5046C11.9968 15.8782 12.404 15.0382 13.0968 14.8726L13.0976 14.8734ZM18.6392 14.871C19.136 14.731 19.72 14.919 19.9872 15.3646C20.3408 15.8742 20.172 16.635 19.6464 16.963C19.0944 17.3446 18.2416 17.1446 17.9376 16.5478C17.5696 15.931 17.94 15.059 18.6392 14.871ZM9.80724 15.4518C10.2488 15.2878 10.7384 15.767 10.5592 16.1982C10.4504 16.5902 9.88804 16.7358 9.59764 16.4462C9.25764 16.1742 9.38323 15.5702 9.80724 15.4518ZM21.7824 16.0774C21.7741 15.9013 21.8357 15.7291 21.9538 15.5981C22.0718 15.4672 22.2368 15.3882 22.4128 15.3782C22.7152 15.4262 23.0096 15.6662 22.9856 15.9902C23.0136 16.4182 22.4896 16.7086 22.1184 16.5078C21.9448 16.4206 21.856 16.2454 21.7824 16.0774ZM7.63524 15.6646C7.90084 15.5502 8.22964 15.7766 8.16884 16.067C8.15444 16.3958 7.66084 16.523 7.48004 16.2478C7.32004 16.0566 7.41604 15.763 7.63524 15.6638V15.6646ZM24.3944 15.6574C24.5816 15.527 24.8824 15.6206 24.956 15.8358C25.0816 16.071 24.8512 16.3926 24.5824 16.3534C24.2048 16.387 24.0832 15.8214 24.3944 15.6574ZM14.5408 17.2358C15.24 17.0574 15.992 17.631 15.9968 18.3398C16.0416 19.0558 15.3008 19.6902 14.5856 19.5254C14.032 19.4374 13.5976 18.9126 13.616 18.363C13.6144 17.8366 14.0176 17.347 14.5408 17.2358ZM17.3104 17.235C18.02 17.0398 18.7944 17.6238 18.7832 18.3486C18.8208 19.051 18.1032 19.6646 17.4024 19.5246C16.7424 19.4414 16.256 18.7286 16.44 18.0982C16.5328 17.679 16.8896 17.3382 17.3104 17.2342V17.235ZM11.9696 17.671C12.4608 17.5886 12.9216 18.127 12.7224 18.5862C12.5768 19.0758 11.8536 19.2078 11.5336 18.8086C11.1592 18.4246 11.4392 17.7238 11.9696 17.671ZM20.0928 17.6926C20.5312 17.5118 21.0688 17.8846 21.0352 18.3526C21.0528 18.867 20.3888 19.2222 19.9608 18.9214C19.4752 18.6518 19.564 17.8574 20.0928 17.6926ZM22.3632 19.9326C22.192 19.6182 22.5032 19.2014 22.8592 19.2598C23.0352 19.2566 23.1592 19.3934 23.272 19.5086C23.2952 19.695 23.3344 19.9174 23.1768 20.0606C22.9632 20.327 22.4792 20.251 22.3632 19.9326ZM9.34883 19.347C9.68084 19.1302 10.1584 19.4542 10.0832 19.835C10.0432 20.1734 9.61124 20.3662 9.32724 20.1742C9.02164 20.0006 9.03284 19.5054 9.34883 19.347ZM15.9032 20.0534C16.3376 19.8654 16.8912 20.2374 16.8496 20.7078C16.8816 21.2278 16.1976 21.5878 15.7728 21.2758C15.3008 21.0078 15.38 20.219 15.9032 20.0534ZM12.868 20.7502C13.2376 20.559 13.7336 20.8894 13.7 21.2974C13.7112 21.6318 13.38 21.9166 13.044 21.867C12.7664 21.8614 12.5856 21.6158 12.496 21.383C12.5008 21.1294 12.6072 20.847 12.868 20.751V20.7502ZM19.0168 20.7566C19.3976 20.5246 19.9384 20.8574 19.9024 21.2926C19.912 21.7486 19.3008 22.0398 18.9464 21.7406C18.604 21.5062 18.6456 20.943 19.0168 20.7566ZM20.0864 23.3566C19.9168 23.1054 20.116 22.8022 20.3904 22.7446C20.612 22.7886 20.8464 22.9526 20.7992 23.2038C20.7672 23.5454 20.26 23.6494 20.0864 23.3574V23.3566ZM11.5976 23.1382C11.6648 22.9382 11.828 22.7406 12.0672 22.7926C12.4152 22.8166 12.5184 23.3334 12.2136 23.4926C11.94 23.6742 11.6216 23.4254 11.5976 23.1382ZM15.6936 23.3678C15.76 23.0718 16.148 22.9286 16.404 23.0854C16.5736 23.1574 16.6232 23.343 16.6664 23.5014C16.6436 23.5837 16.6223 23.6664 16.6024 23.7494C16.4976 23.871 16.3624 23.9934 16.188 23.9894C15.864 24.027 15.5712 23.6662 15.6928 23.3678H15.6936Z" fill="white"/>
    </g>
    <defs>
        <filter id="filter0_d_3410_98305" x="6.40039" y="7.50098" width="19.5908" height="17.9912" filterUnits="userSpaceOnUse" color-interpolation-filters="sRGB">
            <feFlood flood-opacity="0" result="BackgroundImageFix"/>
            <feColorMatrix in="SourceAlpha" type="matrix" values="0 0 0 0 0 0 0 0 0 0 0 0 0 0 0 0 0 0 127 0" result="hardAlpha"/>
            <feOffset dy="0.5"/>
            <feGaussianBlur stdDeviation="0.5"/>
            <feColorMatrix type="matrix" values="0 0 0 0 0 0 0 0 0 0 0 0 0 0 0 0 0 0 0.204257 0"/>
            <feBlend mode="normal" in2="BackgroundImageFix" result="effect1_dropShadow_3410_98305"/>
            <feBlend mode="normal" in="SourceGraphic" in2="effect1_dropShadow_3410_98305" result="shape"/>
        </filter>
        <clipPath id="clip0_3410_98305">
            <rect width="25.6" height="25.6" fill="white" transform="translate(3.40039 3.2002)"/>
        </clipPath>
    </defs>
</svg>
