<svg width="39" height="40" viewBox="0 0 39 40" fill="none" xmlns="http://www.w3.org/2000/svg">
    <g clip-path="url(#clip0_1504_1385)">
        <path fill-rule="evenodd" clip-rule="evenodd" d="M15.9048 0.85942C18.0115 -0.286473 20.5553 -0.286474 22.6619 0.85942L34.8747 7.50256C37.1503 8.74033 38.5668 11.1233 38.5668 13.7137V26.2863C38.5668 28.8767 37.1503 31.2597 34.8747 32.4974L22.6619 39.1406C20.5553 40.2865 18.0115 40.2865 15.9048 39.1406L3.69203 32.4974C1.41651 31.2597 0 28.8767 0 26.2863L0 13.7137C0 11.1233 1.4165 8.74033 3.69203 7.50256L15.9048 0.85942Z" fill="#F3BA2F"/>
        <path d="M19 36C27.8366 36 35 28.8366 35 20C35 11.1634 27.8366 4 19 4C10.1634 4 3 11.1634 3 20C3 28.8366 10.1634 36 19 36Z" fill="#F3BA2F"/>
        <path d="M15.116 18.404L19 14.52L22.886 18.406L25.146 16.146L19 10L12.856 16.144L15.116 18.404ZM9 20L11.26 17.74L13.52 20L11.26 22.26L9 20ZM15.116 21.596L19 25.48L22.886 21.594L25.146 23.853L19 30L12.856 23.856L12.853 23.853L15.116 21.596ZM24.48 20L26.74 17.74L29 20L26.74 22.26L24.48 20ZM21.292 19.998H21.294V20L19 22.294L16.709 20.004L16.705 20L16.709 19.997L17.11 19.595L17.305 19.4L19 17.706L21.293 19.999L21.292 19.998Z" fill="white"/>
    </g>
    <defs>
        <clipPath id="clip0_1504_1385">
            <rect width="39" height="40" fill="white"/>
        </clipPath>
    </defs>
</svg>
