<svg width="39" height="40" viewBox="0 0 39 40" fill="none" xmlns="http://www.w3.org/2000/svg">
    <g clip-path="url(#clip0_3411_105860)">
        <path fill-rule="evenodd" clip-rule="evenodd" d="M15.9048 0.85942C18.0115 -0.286473 20.5553 -0.286474 22.6619 0.85942L34.8747 7.50256C37.1503 8.74033 38.5668 11.1233 38.5668 13.7137V26.2863C38.5668 28.8767 37.1503 31.2597 34.8747 32.4974L22.6619 39.1406C20.5553 40.2865 18.0115 40.2865 15.9048 39.1406L3.69203 32.4974C1.41651 31.2597 0 28.8767 0 26.2863L0 13.7137C0 11.1233 1.4165 8.74033 3.69203 7.50256L15.9048 0.85942Z" fill="#989294"/>
        <path d="M19 36C27.8366 36 35 28.8366 35 20C35 11.1634 27.8366 4 19 4C10.1634 4 3 11.1634 3 20C3 28.8366 10.1634 36 19 36Z" fill="#989294"/>
        <path d="M19.5 12C16.6855 12 14.397 14.1004 14.397 16.682H16.9465C16.9465 15.5066 18.0915 14.5495 19.5 14.5495C20.9082 14.5495 22.0532 15.5066 22.0532 16.682V17.0521C22.0532 18.3014 21.5035 18.8846 20.6691 19.766C19.581 20.916 18.2259 22.3492 18.2259 25.4221H20.7759C20.7759 23.3645 21.5848 22.5076 22.522 21.5167C23.4496 20.5368 24.6029 19.3167 24.6029 17.0521V16.682C24.6028 14.1004 22.3145 12 19.5 12Z" fill="white"/>
        <path d="M20.8509 26.8477H18.1821V29H20.8509V26.8477Z" fill="white"/>
    </g>
    <defs>
        <clipPath id="clip0_3411_105860">
            <rect width="39" height="40" fill="white"/>
        </clipPath>
    </defs>
</svg>
