<svg width="33" height="32" viewBox="0 0 33 32" fill="none" xmlns="http://www.w3.org/2000/svg">
    <path fill-rule="evenodd" clip-rule="evenodd" d="M13.4973 0.687536C15.1826 -0.229179 17.2177 -0.229179 18.903 0.687536L28.6732 6.00205C30.4937 6.99226 31.6269 8.89867 31.6269 10.971V21.029C31.6269 23.1013 30.4937 25.0077 28.6732 25.998L18.903 31.3125C17.2177 32.2292 15.1826 32.2292 13.4973 31.3125L3.72706 25.998C1.90664 25.0077 0.773438 23.1013 0.773438 21.029L0.773438 10.971C0.773437 8.89867 1.90664 6.99226 3.72706 6.00205L13.4973 0.687536Z" fill="#C3A634"/>
    <g clip-path="url(#clip0_3410_98340)">
        <path d="M16.2004 28.8002C23.2696 28.8002 29.0004 23.0694 29.0004 16.0002C29.0004 8.93095 23.2696 3.2002 16.2004 3.2002C9.13115 3.2002 3.40039 8.93095 3.40039 16.0002C3.40039 23.0694 9.13115 28.8002 16.2004 28.8002Z" fill="#C3A634"/>
        <path fill-rule="evenodd" clip-rule="evenodd" d="M13.999 14.8886H17.4502V16.7174H13.999V20.5718H16.1758C17.0374 20.5718 17.7422 20.4558 18.291 20.2222C18.8398 19.9894 19.2702 19.667 19.583 19.2542C19.9029 18.8249 20.1207 18.3283 20.2198 17.8022C20.3354 17.2087 20.3916 16.6052 20.3878 16.0006C20.3916 15.396 20.3354 14.7925 20.2198 14.199C20.1208 13.6728 19.903 13.1762 19.583 12.747C19.2702 12.3342 18.839 12.0118 18.291 11.779C17.7422 11.5454 17.0374 11.4294 16.1758 11.4294H13.999V14.8894V14.8886ZM11.7862 16.7174H10.6006V14.8894H11.7862V9.60059H17.0254C17.9934 9.60059 18.831 9.76859 19.539 10.1022C20.247 10.4374 20.8246 10.8942 21.2734 11.4742C21.7214 12.0534 22.055 12.7318 22.2734 13.5086C22.4918 14.2854 22.6006 15.1166 22.6006 16.0006C22.6061 16.8424 22.4957 17.6809 22.2726 18.4926C22.055 19.2686 21.7214 19.9478 21.2726 20.527C20.8246 21.107 20.247 21.5638 19.539 21.899C18.831 22.2334 17.9926 22.4006 17.0254 22.4006H11.7862V16.7174Z" fill="white"/>
    </g>
    <defs>
        <clipPath id="clip0_3410_98340">
            <rect width="25.6" height="25.6" fill="white" transform="translate(3.40039 3.2002)"/>
        </clipPath>
    </defs>
</svg>
