<svg width="33" height="32" viewBox="0 0 33 32" fill="none" xmlns="http://www.w3.org/2000/svg">
    <path fill-rule="evenodd" clip-rule="evenodd" d="M13.4973 0.687536C15.1826 -0.229179 17.2177 -0.229179 18.903 0.687536L28.6732 6.00205C30.4937 6.99226 31.6269 8.89867 31.6269 10.971V21.029C31.6269 23.1013 30.4937 25.0077 28.6732 25.998L18.903 31.3125C17.2177 32.2292 15.1826 32.2292 13.4973 31.3125L3.72706 25.998C1.90664 25.0077 0.773438 23.1013 0.773438 21.029L0.773438 10.971C0.773437 8.89867 1.90664 6.99226 3.72706 6.00205L13.4973 0.687536Z" fill="#2775C9"/>
    <g clip-path="url(#clip0_3410_98442)">
        <path d="M16.2004 28.8002C23.2696 28.8002 29.0004 23.0694 29.0004 16.0002C29.0004 8.93095 23.2696 3.2002 16.2004 3.2002C9.13115 3.2002 3.40039 8.93095 3.40039 16.0002C3.40039 23.0694 9.13115 28.8002 16.2004 28.8002Z" fill="#2775C9"/>
        <path d="M16.0006 25.2004C10.8086 25.2004 6.60059 20.9924 6.60059 15.8004C6.60059 10.6084 10.8086 6.40039 16.0006 6.40039C21.1926 6.40039 25.4006 10.6084 25.4006 15.8004C25.4006 18.2934 24.4102 20.6844 22.6474 22.4472C20.8845 24.21 18.4936 25.2004 16.0006 25.2004ZM15.4406 12.3124C14.9263 12.3379 14.4401 12.5547 14.0774 12.9203C13.7148 13.2859 13.5019 13.7739 13.4806 14.2884C13.4806 15.2564 14.0726 15.8884 15.3286 16.1524L16.2086 16.3604C17.0646 16.5604 17.4166 16.8484 17.4166 17.3364C17.4166 17.8244 16.8006 18.3044 16.0006 18.3044C15.7164 18.3304 15.4307 18.276 15.176 18.1472C14.9214 18.0185 14.7081 17.8207 14.5606 17.5764C14.5169 17.4837 14.4479 17.4052 14.3616 17.35C14.2752 17.2948 14.1751 17.2652 14.0726 17.2644H13.6006C13.5643 17.2711 13.5297 17.2849 13.4987 17.3051C13.4678 17.3252 13.4412 17.3513 13.4204 17.3818C13.3995 17.4123 13.385 17.4466 13.3774 17.4827C13.3699 17.5189 13.3696 17.5561 13.3766 17.5924C13.4916 18.0616 13.7589 18.4795 14.1367 18.7806C14.5145 19.0817 14.9815 19.249 15.4646 19.2564V19.9284C15.4646 20.078 15.524 20.2214 15.6298 20.3272C15.7355 20.433 15.879 20.4924 16.0286 20.4924C16.1782 20.4924 16.3216 20.433 16.4274 20.3272C16.5332 20.2214 16.5926 20.078 16.5926 19.9284V19.2484C17.1388 19.2422 17.661 19.023 18.0481 18.6375C18.4351 18.252 18.6563 17.7306 18.6646 17.1844C18.6646 16.1684 18.0806 15.5844 16.6966 15.2884L15.8966 15.1124C15.0966 14.9124 14.7206 14.6484 14.7206 14.2004C14.7206 13.7524 15.2006 13.2564 16.0006 13.2564C16.2525 13.2301 16.5067 13.2773 16.7324 13.3922C16.9581 13.5072 17.1458 13.6851 17.2726 13.9044C17.324 14.0139 17.4054 14.1066 17.5073 14.1717C17.6093 14.2369 17.7276 14.2718 17.8486 14.2724H18.2246C18.3101 14.2515 18.3839 14.1979 18.4303 14.1231C18.4767 14.0483 18.4919 13.9583 18.4726 13.8724C18.3642 13.4391 18.1218 13.0512 17.7799 12.7639C17.4379 12.4765 17.014 12.3045 16.5686 12.2724V11.7204C16.5686 11.5708 16.5092 11.4274 16.4034 11.3216C16.2976 11.2158 16.1542 11.1564 16.0046 11.1564C15.855 11.1564 15.7115 11.2158 15.6058 11.3216C15.5 11.4274 15.4406 11.5708 15.4406 11.7204V12.3124ZM8.95259 15.8004C8.9535 17.274 9.41736 18.7102 10.2787 19.9059C11.1399 21.1017 12.3551 21.9966 13.7526 22.4644H13.8646C13.9601 22.4644 14.0516 22.4265 14.1191 22.3589C14.1867 22.2914 14.2246 22.1999 14.2246 22.1044V21.9364C14.2248 21.7875 14.1809 21.6418 14.0983 21.5179C14.0157 21.394 13.8981 21.2974 13.7606 21.2404C12.6723 20.8011 11.7401 20.0466 11.0836 19.0737C10.4272 18.1009 10.0764 16.954 10.0764 15.7804C10.0764 14.6068 10.4272 13.4599 11.0836 12.487C11.7401 11.5142 12.6723 10.7597 13.7606 10.3204C13.8975 10.2648 14.0148 10.1696 14.0974 10.0471C14.1801 9.92456 14.2243 9.78019 14.2246 9.63239V9.44839C14.2251 9.39437 14.2126 9.34101 14.1881 9.29286C14.1636 9.2447 14.1279 9.20316 14.0839 9.17175C14.0399 9.14035 13.989 9.12001 13.9355 9.11246C13.8821 9.10492 13.8275 9.11038 13.7766 9.12839C12.3734 9.59246 11.152 10.4869 10.2861 11.6846C9.42008 12.8823 8.9535 14.3224 8.95259 15.8004ZM23.0486 15.8004C23.046 14.3281 22.5814 12.8938 21.7202 11.6996C20.859 10.5054 19.6447 9.6117 18.2486 9.14439H18.1286C18.0289 9.14439 17.9332 9.184 17.8627 9.25452C17.7922 9.32503 17.7526 9.42067 17.7526 9.52039V9.64039C17.7558 9.79469 17.8036 9.94475 17.8902 10.0725C17.9768 10.2003 18.0985 10.3002 18.2406 10.3604C19.3264 10.801 20.2561 11.5555 20.9107 12.5275C21.5652 13.4994 21.9149 14.6446 21.9149 15.8164C21.9149 16.9882 21.5652 18.1334 20.9107 19.1053C20.2561 20.0773 19.3264 20.8318 18.2406 21.2724C18.1012 21.3332 17.982 21.4324 17.897 21.5585C17.8119 21.6846 17.7646 21.8324 17.7606 21.9844V22.1204C17.7613 22.1797 17.776 22.238 17.8035 22.2905C17.831 22.3431 17.8706 22.3884 17.919 22.4227C17.9673 22.457 18.0231 22.4794 18.0818 22.4881C18.1405 22.4967 18.2004 22.4913 18.2566 22.4724C19.6538 22.0028 20.8682 21.1061 21.7281 19.9089C22.588 18.7116 23.0499 17.2744 23.0486 15.8004Z" fill="white"/>
    </g>
    <defs>
        <clipPath id="clip0_3410_98442">
            <rect width="25.6" height="25.6" fill="white" transform="translate(3.40039 3.2002)"/>
        </clipPath>
    </defs>
</svg>
