<svg width="33" height="32" viewBox="0 0 33 32" fill="none" xmlns="http://www.w3.org/2000/svg">
    <path fill-rule="evenodd" clip-rule="evenodd" d="M13.4973 0.687536C15.1826 -0.229179 17.2177 -0.229179 18.903 0.687536L28.6732 6.00205C30.4937 6.99226 31.6269 8.89867 31.6269 10.971V21.029C31.6269 23.1013 30.4937 25.0077 28.6732 25.998L18.903 31.3125C17.2177 32.2292 15.1826 32.2292 13.4973 31.3125L3.72706 25.998C1.90664 25.0077 0.773438 23.1013 0.773438 21.029L0.773438 10.971C0.773437 8.89867 1.90664 6.99226 3.72706 6.00205L13.4973 0.687536Z" fill="#23292F"/>
    <g clip-path="url(#clip0_3410_98374)">
        <path d="M16.2004 28.8002C23.2696 28.8002 29.0004 23.0694 29.0004 16.0002C29.0004 8.93095 23.2696 3.2002 16.2004 3.2002C9.13115 3.2002 3.40039 8.93095 3.40039 16.0002C3.40039 23.0694 9.13115 28.8002 16.2004 28.8002Z" fill="#23292F"/>
        <path d="M21.8562 9.60059H24.1682L19.3562 14.3662C18.5149 15.1951 17.3812 15.6597 16.2002 15.6597C15.0191 15.6597 13.8855 15.1951 13.0442 14.3662L8.2282 9.60059H10.5442L14.2002 13.219C14.7326 13.7445 15.4505 14.0391 16.1986 14.0391C16.9466 14.0391 17.6646 13.7445 18.197 13.219L21.8562 9.60059ZM10.5162 22.851H8.2002L13.0442 18.0566C13.8855 17.2277 15.0191 16.763 16.2002 16.763C17.3812 16.763 18.5149 17.2277 19.3562 18.0566L24.2002 22.8502H21.8842L18.2002 19.2006C17.6678 18.6751 16.9498 18.3805 16.2018 18.3805C15.4537 18.3805 14.7358 18.6751 14.2034 19.2006L10.5154 22.851H10.5162Z" fill="white"/>
    </g>
    <defs>
        <clipPath id="clip0_3410_98374">
            <rect width="25.6" height="25.6" fill="white" transform="translate(3.40039 3.2002)"/>
        </clipPath>
    </defs>
</svg>
