<svg viewBox="0 0 24 24" xmlns="http://www.w3.org/2000/svg">
<path fill-rule="evenodd" clip-rule="evenodd" d="M20 6H4C2.89543 6 2 6.89543 2 8V16C2 17.1046 2.89543 18 4 18H20C21.1046 18 22 17.1046 22 16V8C22 6.89543 21.1046 6 20 6ZM4 4C1.79086 4 0 5.79086 0 8V16C0 18.2091 1.79086 20 4 20H20C22.2091 20 24 18.2091 24 16V8C24 5.79086 22.2091 4 20 4H4Z" fill="currentColor"/>
<path d="M16 10C16 9.44772 16.4477 9 17 9H19C19.5523 9 20 9.44772 20 10C20 10.5523 19.5523 11 19 11H17C16.4477 11 16 10.5523 16 10Z" fill="currentColor"/>
<path d="M4 14C4 13.4477 4.44772 13 5 13C5.55228 13 6 13.4477 6 14C6 14.5523 5.55228 15 5 15C4.44772 15 4 14.5523 4 14Z" fill="currentColor"/>
<path d="M8 14C8 13.4477 8.44772 13 9 13H15C15.5523 13 16 13.4477 16 14C16 14.5523 15.5523 15 15 15H9C8.44772 15 8 14.5523 8 14Z" fill="currentColor"/>
<path d="M19 13C18.4477 13 18 13.4477 18 14C18 14.5523 18.4477 15 19 15C19.5523 15 20 14.5523 20 14C20 13.4477 19.5523 13 19 13Z" fill="currentColor"/>
<path d="M13 9C12.4477 9 12 9.44772 12 10C12 10.5523 12.4477 11 13 11C13.5523 11 14 10.5523 14 10C14 9.44772 13.5523 9 13 9Z" fill="currentColor"/>
<path d="M8 10C8 9.44772 8.44772 9 9 9C9.55228 9 10 9.44772 10 10C10 10.5523 9.55228 11 9 11C8.44772 11 8 10.5523 8 10Z" fill="currentColor"/>
<path d="M5 9C4.44772 9 4 9.44772 4 10C4 10.5523 4.44772 11 5 11C5.55228 11 6 10.5523 6 10C6 9.44772 5.55228 9 5 9Z" fill="currentColor"/>
</svg>
