<svg viewBox="0 0 24 24" xmlns="http://www.w3.org/2000/svg">
<path fill-rule="evenodd" clip-rule="evenodd" d="M5 6L5 15L19 15L19 6C19 5.44772 18.5523 5 18 5L6 5C5.44771 5 5 5.44772 5 6ZM3 17L21 17L21 6C21 4.34315 19.6569 3 18 3L6 3C4.34315 3 3 4.34315 3 6L3 17Z" fill="currentColor"/>
<path fill-rule="evenodd" clip-rule="evenodd" d="M3 17L3 18C3 18.5523 3.44772 19 4 19L20 19C20.5523 19 21 18.5523 21 18L21 17L3 17ZM1 18C1 19.6569 2.34315 21 4 21L20 21C21.6569 21 23 19.6569 23 18L23 16C23 15.4477 22.5523 15 22 15L2 15C1.44772 15 1 15.4477 1 16L1 18Z" fill="currentColor"/>
</svg>
