<svg viewBox="0 0 24 24" xmlns="http://www.w3.org/2000/svg">
<path fill-rule="evenodd" clip-rule="evenodd" d="M7.29289 10.2071C7.68342 10.5976 8.31658 10.5976 8.70711 10.2071L11.5 7.41421L14.2929 10.2071C14.6834 10.5976 15.3166 10.5976 15.7071 10.2071C16.0976 9.81658 16.0976 9.18342 15.7071 8.79289L12.2071 5.29289C11.8166 4.90237 11.1834 4.90237 10.7929 5.29289L7.29289 8.79289C6.90237 9.18342 6.90237 9.81658 7.29289 10.2071Z" fill="currentColor" />
<path fill-rule="evenodd" clip-rule="evenodd" d="M7.29289 13.7929C7.68342 13.4024 8.31658 13.4024 8.70711 13.7929L11.5 16.5858L14.2929 13.7929C14.6834 13.4024 15.3166 13.4024 15.7071 13.7929C16.0976 14.1834 16.0976 14.8166 15.7071 15.2071L12.2071 18.7071C11.8166 19.0976 11.1834 19.0976 10.7929 18.7071L7.29289 15.2071C6.90237 14.8166 6.90237 14.1834 7.29289 13.7929Z" fill="currentColor" />
</svg>
