<svg viewBox="0 0 24 24" xmlns="http://www.w3.org/2000/svg">
    <path fill-rule="evenodd" clip-rule="evenodd" d="M9.52226 8.93409C9.42123 9.17607 9.19343 9.34129 8.93203 9.36216L4.18276 9.74143C3.56134 9.79106 3.3099 10.5671 3.78412 10.9717L7.39855 14.0558C7.59877 14.2267 7.68623 14.4954 7.62494 14.7514L6.51997 19.3657C6.37503 19.9709 7.03288 20.4502 7.56457 20.1267L11.636 17.6495C11.8595 17.5136 12.1402 17.5136 12.3637 17.6495L16.4351 20.1267C16.9668 20.4502 17.6246 19.9709 17.4797 19.3657L16.3747 14.7514C16.3134 14.4954 16.4009 14.2267 16.6011 14.0558L20.2155 10.9717C20.6897 10.5671 20.4383 9.79106 19.8169 9.74143L15.0676 9.36216C14.8062 9.34129 14.5784 9.17607 14.4774 8.93409L12.6458 4.54747C12.4062 3.97376 11.5934 3.97376 11.3539 4.54748L9.52226 8.93409ZM16.0174 7.43164L14.4914 3.77687C13.5674 1.56395 10.4323 1.56397 9.50829 3.77687L7.98226 7.43164L4.02355 7.74778C1.62663 7.93919 0.656782 10.9323 2.48593 12.4931L5.49443 15.0602L4.57496 18.8999C4.01591 21.2344 6.55334 23.083 8.60413 21.8353L11.9998 19.7693L15.3955 21.8353C17.4463 23.0831 19.9837 21.2344 19.4247 18.8999L18.5052 15.0602L21.5137 12.4931C23.3429 10.9323 22.373 7.93919 19.9761 7.74778L16.0174 7.43164Z" fill="currentColor" />
</svg>
